<svg width="720" height="480" viewBox="0 0 720 480" fill="none" xmlns="http://www.w3.org/2000/svg">
  <rect width="720" height="480" rx="40" fill="#0A0B10"/>
  <rect x="146" y="74" width="428" height="332" rx="28" fill="#12141B" stroke="#FFFFFF" stroke-opacity="0.08"/>
  <rect x="182" y="112" width="356" height="196" rx="20" fill="url(#paint0_linear)"/>
  <path d="M361 357C361 357 286 315.3 286 260C286 231.281 308.504 210 336 210C352.489 210 368.653 218.198 377 233.175C385.347 218.198 401.511 210 418 210C445.496 210 468 231.281 468 260C468 315.3 393 357 393 357L377 367L361 357Z" fill="#F5F7FF"/>
  <defs>
    <linearGradient id="paint0_linear" x1="202" y1="128" x2="523" y2="293" gradientUnits="userSpaceOnUse">
      <stop stop-color="#7C5CFF"/>
      <stop offset="1" stop-color="#2FD6FF"/>
    </linearGradient>
  </defs>
</svg>
